<?xml version="1.0" encoding="UTF-8" standalone="no"?>
<!-- Created with Inkscape (http://www.inkscape.org/) -->

<svg
   width="37.56477mm"
   height="38.679722mm"
   viewBox="0 0 37.56477 38.679722"
   version="1.1"
   id="svg5"
   xml:space="preserve"
   sodipodi:docname="pincel1.svg"
   inkscape:version="1.2.1 (9c6d41e410, 2022-07-14)"
   xmlns:inkscape="http://www.inkscape.org/namespaces/inkscape"
   xmlns:sodipodi="http://sodipodi.sourceforge.net/DTD/sodipodi-0.dtd"
   xmlns="http://www.w3.org/2000/svg"
   xmlns:svg="http://www.w3.org/2000/svg"><sodipodi:namedview
     id="namedview7"
     pagecolor="#ffffff"
     bordercolor="#666666"
     borderopacity="1.0"
     inkscape:showpageshadow="2"
     inkscape:pageopacity="0.0"
     inkscape:pagecheckerboard="0"
     inkscape:deskcolor="#d1d1d1"
     inkscape:document-units="mm"
     showgrid="false"
     inkscape:zoom="0.72515432"
     inkscape:cx="-19.306235"
     inkscape:cy="-76.535433"
     inkscape:window-width="1920"
     inkscape:window-height="1001"
     inkscape:window-x="-9"
     inkscape:window-y="41"
     inkscape:window-maximized="1"
     inkscape:current-layer="layer1" /><defs
     id="defs2" /><g
     inkscape:label="Capa 1"
     inkscape:groupmode="layer"
     id="layer1"
     transform="translate(-97.599179,-86.502549)"><path
       style="fill:#000000;stroke-width:0.075644"
       d="m 101.11663,125.1262 c -0.94919,-0.14801 -1.903411,-0.51921 -2.655551,-1.03302 -0.38524,-0.26317 -0.8619,-0.68054 -0.8619,-0.75468 0,-0.0305 0.0992,-0.15918 0.22039,-0.28598 0.40875,-0.42756 0.98709,-1.34854 1.20948,-1.92607 0.45205,-1.17392 0.49451,-1.54398 0.47372,-4.12905 -0.0189,-2.35073 0.0222,-2.93671 0.26825,-3.82002 0.453011,-1.62658 1.782211,-3.00811 3.817661,-3.96795 1.64165,-0.77414 3.31601,-0.88199 4.84091,-0.31182 0.98072,0.3667 1.44968,0.68012 2.32903,1.55659 1.21887,1.21486 1.853,2.4206 2.04945,3.89685 0.30039,2.25728 -0.92984,4.99857 -3.3439,7.45111 -1.58252,1.60775 -3.26202,2.59709 -5.28396,3.11264 -0.9684,0.24692 -2.26292,0.33625 -3.06358,0.2114 z m 13.76892,-12.79653 c -0.23589,-0.68113 -0.47292,-1.24474 -0.6933,-1.64854 -0.57815,-1.05931 -1.6646,-2.29173 -2.62205,-2.97433 -0.51151,-0.36467 -1.55597,-0.91798 -1.8876,-0.99996 -0.11481,-0.0284 -0.2284,-0.0834 -0.25243,-0.1223 -0.0528,-0.0855 0.56905,-0.92188 1.49969,-2.01694 0.88302,-1.03903 4.02926,-4.18142 5.72761,-5.720582 7.29864,-6.614567 14.69057,-11.866555 17.32638,-12.310441 1.87578,-0.315892 1.5157,1.567292 -1.08253,5.661641 -3.66724,5.778927 -11.93725,15.371252 -16.35331,18.968112 -1.20023,0.97757 -1.62408,1.27417 -1.66246,1.16334 z"
       id="path302" /></g></svg>
